<svg width="17" height="16" viewBox="0 0 17 16" fill="none" xmlns="http://www.w3.org/2000/svg">
<path d="M5.29437 -6.10352e-05C2.75348 -6.10352e-05 0.665527 2.08503 0.665527 4.62878V11.113C0.665527 13.6539 2.75062 15.7419 5.29437 15.7419H11.7786C14.3195 15.7419 16.4075 13.6568 16.4075 11.113V4.6295C16.4075 2.08789 14.3224 -6.10352e-05 11.7786 -6.10352e-05H5.29437ZM5.29437 1.43102H11.7786C12.1987 1.43046 12.6148 1.51279 13.003 1.67329C13.3912 1.83379 13.744 2.06931 14.041 2.36637C14.3381 2.66342 14.5736 3.01616 14.7341 3.40439C14.8946 3.79261 14.9769 4.20869 14.9764 4.62878V11.113C14.9769 11.5331 14.8946 11.9492 14.7341 12.3374C14.5736 12.7257 14.3381 13.0784 14.041 13.3754C13.744 13.6725 13.3912 13.908 13.003 14.0685C12.6148 14.229 12.1987 14.3114 11.7786 14.3108H5.29509C4.87493 14.3114 4.45878 14.2292 4.07047 14.0687C3.68216 13.9083 3.32933 13.6728 3.03221 13.3757C2.73508 13.0786 2.49949 12.7259 2.33894 12.3376C2.1784 11.9493 2.09605 11.5332 2.09661 11.113V4.6295C2.09595 4.20934 2.17821 3.79319 2.33867 3.40488C2.49913 3.01657 2.73464 2.66375 3.0317 2.36662C3.32876 2.06949 3.68154 1.8339 4.06981 1.67336C4.45808 1.51281 4.87422 1.43046 5.29437 1.43102ZM12.7625 2.99663C12.6772 2.99625 12.5928 3.01276 12.514 3.04521C12.4351 3.07765 12.3635 3.12539 12.3032 3.18566C12.243 3.24594 12.1952 3.31755 12.1628 3.39638C12.1303 3.4752 12.1138 3.55967 12.1142 3.64491C12.1142 4.00555 12.4019 4.29319 12.7625 4.29319C12.8478 4.29367 12.9323 4.27723 13.0112 4.24483C13.0902 4.21242 13.1619 4.1647 13.2222 4.10442C13.2826 4.04413 13.3304 3.97248 13.3628 3.89361C13.3953 3.81474 13.4119 3.73021 13.4115 3.64491C13.4119 3.55961 13.3953 3.47508 13.3628 3.39621C13.3304 3.31734 13.2826 3.24569 13.2222 3.18541C13.1619 3.12512 13.0902 3.0774 13.0112 3.045C12.9323 3.0126 12.8478 2.99616 12.7625 2.99663ZM8.5365 3.57765C6.17521 3.57765 4.24324 5.50962 4.24324 7.87091C4.24324 10.2322 6.17521 12.1642 8.5365 12.1642C10.8978 12.1642 12.8298 10.2322 12.8298 7.87091C12.8298 5.50962 10.8978 3.57765 8.5365 3.57765ZM8.5365 5.00874C10.1271 5.00874 11.3987 6.28026 11.3987 7.87091C11.3987 9.46156 10.1271 10.7331 8.5365 10.7331C6.94584 10.7331 5.67432 9.46156 5.67432 7.87091C5.67432 6.28026 6.94584 5.00874 8.5365 5.00874Z" fill="white"/>
</svg>
