<svg width="16" height="16" viewBox="0 0 16 16" fill="none" xmlns="http://www.w3.org/2000/svg">
<path d="M2.23151 -6.04931e-05C1.98329 -0.000248489 1.73745 0.0484688 1.50806 0.143309C1.27867 0.238148 1.07021 0.377252 0.894585 0.552675C0.718964 0.728097 0.579623 0.9364 0.484523 1.16569C0.389422 1.39497 0.340426 1.64075 0.340332 1.88897C0.340332 2.93366 1.18682 3.79947 2.22936 3.79947C3.27334 3.79947 4.12054 2.93366 4.12054 1.8904C4.12073 1.64221 4.07201 1.39642 3.97716 1.16706C3.88231 0.937709 3.7432 0.729294 3.56776 0.55373C3.39233 0.378166 3.18402 0.238892 2.95474 0.14387C2.72546 0.0488479 2.4797 -6.05644e-05 2.23151 -6.04931e-05ZM11.4563 5.00874C9.8685 5.00874 8.96047 5.83877 8.52399 6.6645H8.4782V5.23127H5.34913V15.7419H8.60986V10.5392C8.60986 9.16819 8.7129 7.843 10.4094 7.843C12.0817 7.843 12.106 9.40646 12.106 10.6257V15.7419H15.3667V9.96888C15.3667 7.14392 14.7592 5.00874 11.4563 5.00874ZM0.600074 5.23056V15.7419H3.86295V5.23056H0.600074Z" fill="white"/>
</svg>
