<svg width="15" height="20" viewBox="0 0 15 20" fill="none" xmlns="http://www.w3.org/2000/svg">
<path id="Vector" d="M3.98047 0.106456C4.51808 -0.058503 5.09499 -0.0310978 5.61516 0.184109C6.13533 0.399317 6.56738 0.789342 6.8394 1.28926L6.93031 1.47556L7.74364 3.31478C7.99047 3.87303 8.0706 4.49281 7.97404 5.09704C7.87749 5.70126 7.60853 6.26327 7.2006 6.71316L7.0372 6.8782L5.75578 8.09476C5.52481 8.31732 5.69804 9.17879 6.53348 10.6517C7.28537 11.977 7.89721 12.5959 8.19822 12.6297H8.25105L8.31616 12.6172L10.8348 11.8332C11.1733 11.7276 11.5345 11.7234 11.8752 11.8212C12.216 11.919 12.5219 12.1146 12.7563 12.3846L12.8681 12.5284L14.5353 14.879C14.862 15.3397 15.0248 15.9 14.9969 16.4675C14.969 17.035 14.752 17.5758 14.3817 18.0011L14.2318 18.1586L13.5659 18.8013C12.968 19.3776 12.22 19.767 11.4109 19.9233C10.6017 20.0795 9.76556 19.996 9.00171 19.6827C6.62439 18.7075 4.46453 16.4794 2.50248 13.021C0.536733 9.55389 -0.280279 6.53186 0.0846125 3.94369C0.19503 3.16133 0.511597 2.424 1.00069 1.81001C1.48979 1.19603 2.13315 0.728318 2.86245 0.456546L3.09957 0.376525L3.98047 0.106456Z" fill="white"/>
</svg>
