<svg width="18" height="14" viewBox="0 0 18 14" fill="none" xmlns="http://www.w3.org/2000/svg">
<path d="M17.4723 1.6561C16.8293 1.94076 16.1472 2.12721 15.4488 2.20921C16.1841 1.76892 16.7343 1.0765 16.9972 0.260788C16.3057 0.670605 15.5496 0.959984 14.7611 1.11658C14.2781 0.600207 13.6509 0.241108 12.9611 0.0859739C12.2713 -0.0691603 11.5507 -0.0131523 10.8931 0.246715C10.2355 0.506582 9.67137 0.958285 9.27395 1.54309C8.87653 2.12789 8.66425 2.81874 8.66472 3.52581C8.66472 3.80272 8.69549 4.07105 8.75774 4.32793C7.35636 4.25895 5.98524 3.89546 4.73374 3.26114C3.48223 2.62682 2.37843 1.73591 1.49427 0.646465C1.18013 1.1842 1.01536 1.7961 1.01701 2.41886C1.01701 3.6403 1.63738 4.71933 2.58476 5.35116C2.02517 5.3334 1.478 5.18176 0.9891 4.90895V4.95403C0.988615 5.76773 1.2699 6.55649 1.78515 7.18627C2.3004 7.81604 3.01782 8.24798 3.81549 8.40867C3.29677 8.55093 2.75228 8.57198 2.22413 8.47021C2.4491 9.17023 2.8871 9.78249 3.47696 10.2215C4.06681 10.6605 4.77905 10.9043 5.51419 10.9188C4.78337 11.4924 3.94659 11.9163 3.05176 12.1662C2.15692 12.416 1.2216 12.487 0.299316 12.3749C1.90966 13.4112 3.78454 13.9615 5.69952 13.9598C12.1809 13.9598 15.7257 8.59042 15.7257 3.93367C15.7257 3.7834 15.72 3.62885 15.7142 3.47787C16.403 2.97917 16.9982 2.36267 17.4723 1.65681V1.6561Z" fill="white"/>
</svg>
